<svg height="202pt" viewBox="0 0 391 202" width="391pt" xmlns="http://www.w3.org/2000/svg"><path d="m0 62.235h12.8418v-50.711s19.8808 44.208 19.8808 44.208c2.3457 5.351 5.5567 7.244 11.8536 7.244 6.2978 0 9.3847-1.893 11.7314-7.244 0 0 19.8799-44.208 19.8799-44.208v50.711h12.8428v-50.628c0-4.939-1.9766-7.327-6.0508-8.561-9.7549-3.046-16.2998-.412-19.2637 6.174 0 0-19.5098 43.63-19.5098 43.63s-18.8925-43.63-18.8925-43.63c-2.8399-6.586-9.5079-9.22-19.26272-6.174-4.07519 1.234-6.05078 3.622-6.05078 8.561z" fill="#00618a" transform="translate(.738281 121.593)"/><path d="m.002.136h12.838v27.938c-.12 1.518.487 5.08 7.522 5.191 3.589.056 27.7 0 27.925 0v-33.265h12.868c.059 0-.013 45.364-.012 45.557.071 11.188-13.882 13.618-20.313 13.806h-40.549v-8.639c.071 0 40.519.008 40.621-.002 8.265-.873 7.289-4.981 7.288-6.364v-3.368h-27.295c-12.699-.117-20.786-5.659-20.886-12.035-.009-.591.274-28.54-.007-28.819z" fill="#00618a" transform="translate(100.444 142.416)"/><g fill="#e48e00"><path d="m0 59.271h36.92c4.322 0 8.521-.905 11.855-2.47 5.556-2.551 8.273-6.008 8.273-10.537v-9.384c0-3.705-3.087-7.163-9.138-9.467-3.211-1.236-7.162-1.894-10.99-1.894h-15.559c-5.185 0-7.655-1.564-8.272-5.021-.124-.412-.124-.742-.124-1.153v-5.844c0-.33 0-.66.124-1.071.617-2.634 1.976-3.376 6.544-3.787.371 0 .864-.083 1.235-.083h36.674v-8.56h-36.057c-5.186 0-7.903.329-10.372 1.069-7.656 2.388-10.99 6.175-10.99 12.761v7.491c0 5.763 6.545 10.702 17.534 11.854 1.236.082 2.47.164 3.704.164h13.336c.495 0 .989 0 1.359.083 4.075.33 5.803 1.07 7.039 2.552.74.74.987 1.482.987 2.305v7.491c0 .906-.617 2.059-1.851 3.046-1.112.988-2.964 1.647-5.434 1.812-.494 0-.864.082-1.358.082h-35.439z" transform="translate(171.496 124.557)"/><path d="m0 44.371c0 8.808 6.544 13.748 19.757 14.736 1.234.082 2.47.164 3.704.164h33.464v-8.561h-33.711c-7.532 0-10.372-1.894-10.372-6.421v-44.289h-12.842z" transform="translate(308.656 124.557)"/><path d="m0 44.711v-30.522c0-7.754 5.445-12.457 16.209-13.942 1.114-.164 2.352-.247 3.465-.247h24.376c1.237 0 2.352.083 3.589.247 10.765 1.485 16.209 6.188 16.209 13.942v30.522c0 6.291-2.312 9.658-7.641 11.852 0 0 12.65 11.418 12.65 11.418h-14.911s-10.234-9.238-10.234-9.238-10.303.653-10.303.653h-13.735c-2.351 0-4.825-.331-7.548-1.073-8.166-2.227-12.126-6.517-12.126-13.612zm13.861-.742c0 .413.123.825.247 1.32.742 3.547 4.083 5.527 9.156 5.527h11.667s-10.717-9.675-10.717-9.675h14.911s9.347 8.438 9.347 8.438c1.722-.918 2.856-2.322 3.252-4.125.123-.412.123-.825.123-1.237v-29.285c0-.33 0-.743-.123-1.156-.743-3.299-4.084-5.196-9.033-5.196h-19.427c-5.691 0-9.403 2.475-9.403 6.352z" transform="translate(236.74 124.666)"/></g><path d="m135.289 114.997c-7.894-.214-13.924.52-19.079 2.694-1.465.618-3.801.634-4.04 2.47.805.844.93 2.104 1.57 3.142 1.231 1.992 3.309 4.661 5.163 6.061 2.026 1.529 4.114 3.165 6.286 4.489 3.863 2.356 8.176 3.701 11.896 6.061 2.192 1.391 4.37 3.143 6.509 4.713 1.057.776 1.768 1.983 3.142 2.469 0-.074 0-.149 0-.224-.722-.919-.908-2.183-1.571-3.143-.972-.972-1.945-1.945-2.918-2.918-2.853-3.787-6.475-7.113-10.325-9.876-3.07-2.204-9.942-5.181-11.223-8.754-.075-.075-.149-.15-.225-.225 2.177-.245 4.726-1.033 6.735-1.571 3.375-.905 6.391-.671 9.876-1.571 1.571-.449 3.142-.899 4.714-1.347 0-.3 0-.598 0-.898-1.762-1.808-3.018-4.2-4.939-5.836-5.026-4.28-10.512-8.556-16.161-12.1216-3.133-1.9776-7.005-3.2627-10.325-4.9385-1.117-.5635-3.079-.8565-3.817-1.7959-1.744-2.2237-2.694-5.042-4.039-7.6319-2.818-5.4257-5.585-11.3515-8.081-17.0595-1.703-3.8926-2.815-7.7315-4.938-11.2237-10.192-16.7568-21.163-26.8711-38.158-36.8125-3.616-2.1142-7.97-2.9492-12.571-4.04-2.468-.1494-4.938-.2998-7.407-.4492-1.507-.6299-3.075-2.4737-4.489-3.3672-5.63-3.55667-20.071-11.293-24.241-1.1221-2.633 6.4199 3.935 12.6846 6.284 15.9375 1.649 2.2822 3.76 4.8408 4.938 7.4072.775 1.6866.909 3.378 1.572 5.1631 1.632 4.3965 3.051 9.1797 5.162 13.2432 1.067 2.0557 2.243 4.2217 3.592 6.0605.827 1.128 2.244 1.625 2.468 3.3672-1.386 1.9395-1.465 4.9502-2.244 7.4073-3.508 11.0615-2.185 24.8105 2.918 32.9971 1.566 2.513 5.254 7.903 10.325 5.836 4.436-1.807 3.445-7.406 4.714-12.3458.287-1.1202.111-1.9434.673-2.6934v.2246c1.347 2.6934 2.694 5.3867 4.041 8.0796 2.99 4.816 8.297 9.849 12.794 13.245 2.332 1.761 4.168 4.806 7.183 5.836 0-.075 0-.149 0-.225-.076 0-.15 0-.225 0-.584-.911-1.498-1.288-2.244-2.02-1.757-1.722-3.71-3.863-5.163-5.836-4.09-5.553-7.705-11.631-10.998-17.9575-1.573-3.0205-2.94-6.3535-4.266-9.4278-.511-1.1855-.505-2.9775-1.57-3.5917-1.452 2.2529-3.591 4.0742-4.714 6.7343-1.796 4.252-2.028 9.4375-2.693 14.8147-.394.141-.219.044-.45.224-3.126-.754-4.225-3.9723-5.386-6.733-2.939-6.9824-3.485-18.2256-.899-26.2627.669-2.0791 3.693-8.6289 2.469-10.5498-.584-1.917-2.512-3.0254-3.591-4.4902-1.335-1.8106-2.668-4.1944-3.592-6.2852-2.405-5.4443-3.528-11.5557-6.06-17.0586-1.21-2.6309-3.257-5.293-4.938-7.6318-1.861-2.5908-3.945-4.4991-5.387-7.6328-.513-1.1133-1.21-2.8956-.449-4.0401.242-.7725.583-1.0947 1.347-1.3467 1.302-1.00389 4.928.334 6.284.8975 3.6 1.4951 6.604 2.9189 9.653 4.9385 1.464.9707 2.944 2.8476 4.713 3.3672h2.02c3.16.7265 6.7.2256 9.652 1.122 5.218 1.586 9.894 4.0528 14.141 6.7344 12.938 8.169 23.516 19.7979 30.752 33.6699 1.164 2.2334 1.668 4.3653 2.693 6.7344 2.069 4.7774 4.675 9.6934 6.733 14.3652 2.054 4.6612 4.056 9.3653 6.959 13.2442 1.527 2.039 7.422 3.1328 10.101 4.2646 1.878.794 4.955 1.621 6.734 2.693 3.398 2.05 6.69 4.49 9.877 6.735 1.593 1.122 6.489 3.583 6.733 5.611z" fill="#00618a" transform="translate(241.59 -4.64258)"/><path d="m4.041.0303c-1.646-.0303-2.81.1797-4.041.4483v.2246h.225c.785 1.6132 2.171 2.6513 3.142 4.041.748 1.5713 1.496 3.1426 2.245 4.7129.074-.0743.15-.1494.224-.2237 1.39-.9795 2.027-2.5468 2.02-4.9384-.557-.586-.639-1.3213-1.122-2.0206-.642-.9316-1.884-1.4609-2.693-2.2441z" fill="#00618a" fill-rule="evenodd" transform="translate(272.504 24.8027)"/><path d="m0 9.463c0 5.654 4.467 9.464 9.464 9.464s9.464-3.81 9.464-9.464c0-5.653-4.467-9.463-9.464-9.463s-9.464 3.81-9.464 9.463zm16.808 0c0 4.29-3.28 7.496-7.344 7.496-4.113 0-7.344-3.206-7.344-7.496s3.231-7.496 7.344-7.496c4.064 0 7.344 3.206 7.344 7.496zm-4.794 5.401h2.119s-3.103-4.744-3.103-4.744c1.665-.177 2.926-.985 2.926-2.953 0-2.196-1.387-3.104-4.062-3.104h-4.215v10.801h1.817v-4.669h1.691s2.827 4.669 2.827 4.669zm-4.518-6.183v-3.104h2.094c1.086 0 2.398.202 2.398 1.464 0 1.513-1.186 1.64-2.549 1.64z" fill="#e48e00" fill-rule="evenodd" transform="translate(371.609 165.56)"/></svg>