<svg height="90" width="260" xmlns="http://www.w3.org/2000/svg"><g fill-rule="evenodd" transform="translate(121.06306 -355.93976)"><path d="m-101.47577 400.00486c-.0431 8.1975 5.967822 13.08438 15.560005 10.8625v-21.725c-9.713433-2.95812-15.519375 3.02656-15.560005 10.8625m15.853442-42.27625h13.21125v62.53344c-12.663437 2.07031-24.79187 3.38344-33.468442-1.46813-11.17187-6.24625-12.07-26.09562-3.22968-34.93625 4.48218-4.48187 13.505622-7.63718 23.193435-5.57812v-19.67c-.02531-.41688-.04875-.83188.293437-.88094"/><path d="m-50.979419 371.52699h-13.211251v-13.79844h13.211251z"/><path d="m107.55577 411.45442c14.40218 5.59688 15.99562-25.77875 1.46812-22.89968-9.02187 1.78812-8.73218 20.07687-1.46812 22.89968m.58718-33.76218c10.99844-1.17594 19.29594 3.6775 22.60625 11.15625 5.64813 12.76031-.31062 27.40218-9.39468 31.70718-4.70813 2.23125-9.63813 2.44375-14.09219 2.055-13.766874-1.20062-22.449374-15.23062-17.614999-30.82656.756562-2.44094 1.606562-3.93406 2.055312-4.69719 2.9925-5.08812 8.044688-8.49687 16.440307-9.39468"/><path d="m-32.777012 406.46358c-3.654062 6.14094 5.526875 7.61219 11.449375 5.87187v-9.10125c-4.550625.63532-9.730312.33969-11.449375 3.22938m23.192813 14.38562c-10.913125.62782-27.498125 4.34532-33.468438-2.93562-3.5075-4.27813-3.130312-12.43781 0-16.44094 4.045313-5.1725 12.875938-6.30062 20.844375-7.04594.723438-1.78125.235625-4.67937-.587187-5.87218-7.28875-1.85657-14.530625 1.02031-19.669688 3.22937v-10.275c7.761875-3.56625 25.740625-7.32125 31.119688.88063 2.825 4.30781 1.76125 11.82062 1.76125 18.49562z"/><path d="m36.802301 421.43674h-13.21125v-17.02813c0-5.60656.906875-12.71562-2.055625-14.97281-2.32-1.76875-7.824063-.88125-11.155625 0v32.00094h-13.2115628v-40.80844c13.5053128-3.50813 37.8831248-7.26938 39.6340628 9.68812.863437 8.36063-.639688 20.90407 0 31.12032"/><path d="m56.472393 407.34433c2.223125 3.59687 8.243125 4.94562 13.210938 2.64219-.272813-6.87094-.368125-13.91938-.293438-21.13813-11.4175-3.01656-18.221875 9.91594-12.9175 18.49594m33.175-27.89031c-1.175937 3.52156-2.896875 6.4975-4.40375 9.68843-1.361562.305-2.541562-.54125-3.229687 0-.30125 14.31094 3.047812 33.71157-2.642188 44.03719-3.425937 6.21688-9.733437 10.20531-19.376562 10.86281-7.024688.47907-12.476875-.66875-17.615-2.64218v-12.33063c6.026562 3.51875 21.255 6.3875 25.541875-.88094 1.26125-2.13843 1.18125-4.34875 1.76125-7.63312-2.76.145-5.439375 1.42312-8.807188 1.46812-13.845937.18375-22.411875-10.84093-19.083125-26.12937 1.2875-5.91375 4.7525-10.67531 9.395-13.50469 9.641875-5.87656 24.462813-5.43031 38.459375-2.93562"/><path d="m-50.979389 378.51405c-.015 9.72844-.0128 16.71906-.01375 28.53781-.56125 11.61469-.430625 20.86375-4.683438 26.42125-.83875 1.09594-2.62 2.69469-4.110312 3.81688-1.251564.94218-3.636876 2.85281-4.990939 2.93593-1.365.0838-4.871875-1.895-6.459062-2.6425-2.084063-.98156-4.010625-2.285-6.165-2.93562 5.025312-3.11406 9.795625-5.44875 11.743125-11.74344 1.69375-5.47437 1.468125-13.40719 1.468125-21.13812 0-7.63375.03406-16.50875.03406-23.24875l13.177189-.003z"/></g></svg>