<!--suppress ALL -->

<svg height="120" width="300" xmlns="http://www.w3.org/2000/svg" xmlns:xlink="http://www.w3.org/1999/xlink"><radialGradient id="a" cx="61.297766" cy="60.910986" gradientTransform="matrix(1 0 0 .945104 0 3.343747)" gradientUnits="userSpaceOnUse" r="44.688254"><stop offset="0" stop-color="#575757"/><stop offset="1" stop-color="#2f2f2f"/></radialGradient><path d="m165.36463 80.874808h-12.03907v.959592h-5.67562v-45.798817h17.71469v-15.702454c5.21691.697954 7.7107 1.744785 7.48146 3.140492-.05738.581637-.63064 1.075973-1.71985 1.483003v11.078959h17.97271v46.496703h-5.76162v-1.657478h-12.21109v22.070672h-5.76161zm-12.03907-25.385635h12.03907v-13.696027h-12.03907zm17.80068 0h12.21109v-13.696027h-12.21109zm12.21109 5.844804h-12.21109v13.696029h12.21109zm-17.9727 0h-12.03907v13.696029h12.03907zm-32.50566-1.919185c4.47172 3.722091 8.14072 8.520056 11.00721 14.393909l-4.72964 3.576671c-1.89187-4.419927-4.50034-8.258302-7.8254-11.515132v37.07524h-5.6756v-34.37093c-3.32512 3.373143-7.10883 6.339157-11.35118 8.89806l-4.64367-4.100084c11.86713-6.28096 20.98243-17.883314 27.34599-34.807109h-20.72447v-5.844802h9.54533v-12.387486c5.04491.697954 7.51007 1.715709 7.39545 3.053254-.05738.6398-.63064 1.163211-1.71992 1.570241v7.763991h9.28736l2.83781 4.012854c-2.9238 8.781791-6.50687 16.342223-10.74927 22.681323m121.25119-9.944891v-29.136772c5.10227.697954 7.56739 1.715709 7.39546 3.053254-.05739.523486-.45863.959661-1.2039 1.308534-.00008.000069-.00008.000069 0 0l-.51594.261707v24.513277h17.37074v5.75757h-17.37074v38.558241h21.67038v5.844798h-49.10238v-5.844798h21.75638v-38.558241h-17.8867v-5.75757zm-28.54986 9.857653c5.56081 3.780244 10.06115 8.549139 13.50097 14.306681l-4.2997 4.012844c-3.15312-5.466757-6.93682-9.712231-11.35113-12.736431v38.034832h-5.6756v-35.50499c-4.81565 4.187341-10.03262 7.589531-15.65084 10.206589l-4.21373-4.449026c14.79091-6.280952 26.14212-17.825156 34.0535-34.632636h-26.57205v-5.844802h12.64111v-12.387486c5.04491.697954 7.51008 1.715709 7.39546 3.053254-.0574.6398-.63064 1.163211-1.71992 1.570241v7.763991h12.55509l2.5798 4.012854c-3.66905 8.781791-8.08339 16.313142-13.24296 22.594085" fill="#f4f4f4" stroke="#e7e7e7" stroke-linejoin="round" stroke-width=".8"/><path d="m149.14708 37.774469c-.16901 3.34343-.30182 7.049756-.39837 11.118987-.07245 4.069298-.36691 21.747872-.36687 26.630966-.00004 3.541373-.32596 6.466844-.97778 8.776413-.65187 2.309587-1.67794 4.256236-3.07821 5.839944-1.37616 1.583715-3.15063 2.760504-5.32346 3.53036-2.17286.769857-4.78028 1.154796-7.82225 1.154796-2.34186 0-4.44227-.230955-6.30125-.692886l.54321-4.817119c1.71413.72587 3.50068 1.088804 5.35967 1.088803 2.07628.000001 3.88698-.263951 5.43213-.791857 1.56925-.549895 2.81261-1.396743 3.73006-2.540541.94154-1.143787 1.60546-2.551531 1.99176-4.223235.41041-1.671688.61562-3.860289.61564-6.565815-.00002-9.986166.07716-31.624028-.28495-38.508816zm17.2379 42.958228h-6.55474c.33797-4.399199.50699-9.425285.50699-15.078273 0-6.356824-.42252-11.690857-1.2675-16.002105l7.24284-.890836c-.28973 4.597196-.43458 10.228167-.43458 16.892941 0 5.279055.169 10.305141.50699 15.078273m1.52103-41.242538c-.00003 1.121835-.39841 2.100656-1.19511 2.936461-.79672.813895-1.91935 1.220822-3.3679 1.220779-1.23128.000043-2.197-.351895-2.89712-1.055804-.676-.725826-1.014-1.594668-1.014-2.606525 0-1.099766.41043-2.056585 1.23127-2.870479.82084-.813811 1.95554-1.220738 3.40412-1.22078 1.18296.000042 2.11248.362972 2.78848 1.088798.70013.703917 1.05023 1.539764 1.05026 2.50755m38.82147 41.242538h-6.59097c.53112-5.784948.79668-12.097798.79669-18.938575-.00001-3.387366-.7605-5.696945-2.28146-6.928751-1.49687-1.253741-3.64555-1.880624-6.4461-1.880657-3.42833.000033-6.59099 1.132821-9.48811 3.398385 0 7.500662.0483 15.617188.14485 24.349598h-6.59096c.4104-7.478639.61565-12.889655.61565-16.233065 0-5.147043-.53117-10.140139-1.59344-14.979293l6.37371-.824846.68805 4.025268h.28972c3.57312-2.947438 7.39972-4.421169 11.47988-4.421194 4.00766.000025 7.11.813887 9.30702 2.441551 2.19694 1.605745 3.29546 4.476216 3.29547 8.611445-.00001.417944-.02417 1.242799-.07241 2.474555-.04832 1.231797-.07247 2.056643-.07245 2.474552-.00002 3.673348.04826 9.150352.14486 16.431027m15.97043-32.037204c-.41044 6.818789-.61566 13.659548-.61566 20.522287 0 1.825681.06037 4.245239.18107 7.258688.1449 2.991457.21728 5.026091.21731 6.103895-.00003 7.104705-2.96958 11.415924-8.90868 12.933661l-1.81071-2.50754c2.14871-1.649718 3.47656-3.409399 3.98354-5.279053.74843-2.683519 1.12265-8.402478 1.12265-17.156896 0-9.392287-.48283-16.409005-1.44856-21.050196zm1.55719-9.205334c0 1.121835-.39837 2.100656-1.19504 2.936461-.79674.813895-1.91937 1.220822-3.36793 1.220779-1.23129.000043-2.19698-.351895-2.89713-1.055804-.676-.725826-1.014-1.594668-1.014-2.606525 0-1.099766.41044-2.056585 1.23131-2.870479.82085-.813811 1.95554-1.220738 3.40409-1.22078 1.183.000042 2.11249.362972 2.78852 1.088798.70011.703917 1.05018 1.539764 1.05018 2.50755m35.34498 41.242538-5.68562.197964c-.28973-1.077804-.43459-2.100616-.43456-3.068445h-.36216c-2.96957 2.463556-7.01347 3.69533-12.13168 3.695331-2.77644-.000001-5.16656-.736865-7.17043-2.210599-2.00385-1.495727-3.00575-3.618341-3.00575-6.367849 0-3.387375 1.56926-6.103883 4.70781-8.149525 3.13856-2.067607 8.96898-3.156414 17.49144-3.266409.07242-.52789.10859-1.132779.10861-1.814668-.00002-2.705494-.7967-4.509161-2.39009-5.411023-1.56933-.901813-3.95946-1.352727-7.17044-1.35276-3.7904.000033-7.52043.428954-11.19011 1.28677l.6156-4.553183c3.62141-.945791 7.78603-1.418709 12.49388-1.418734 4.29737.000025 7.61701.813887 9.95887 2.441551 2.34183 1.605745 3.51274 4.355245 3.51279 8.248507-.00005 1.033844-.06039 2.914492-.18109 5.641983-.09661 2.705525-.14487 4.509198-.14485 5.411024-.00002 4.003281.32589 7.566633.97778 10.690065m-6.40989-6.400841c-.12074-3.343387-.1811-6.34584-.18106-9.007372-4.53886.000014-7.99127.307959-10.35726.923834-3.95939 1.099813-5.93909 3.20043-5.93909 6.301859 0 2.991466 2.31766 4.487194 6.9531 4.487189 3.98354.000005 7.15828-.901832 9.52431-2.70551" fill="#b41717" stroke="#7f2828"/><path d="m105.45673 18.675923s-17.244781 8.242538-31.283896 10.061975c-14.039107 1.819435-40.8124 3.639673-46.127212 2.355358-5.314804-1.284315-9.129977-2.78406-9.129977-2.78406l1.105796 3.747387-3.411928 2.995888.604887 1.069255 1.40352.105914 4.30981.534612.604891 1.926657 2.405354.216875 1.205046 4.065143s5.111743.428701 6.615932.428701 4.513013-.211826 4.513013-.211826l.099236 1.603855 1.1058.211838v1.820732l-2.410085 2.143532.60489.105912v.746456s-5.41635.43203-7.622506.110963c-2.206144-.321084-2.608554-.322804-2.608554-.322804l-.198489.211841-.099237.963328h.500925l.198474 4.176089 11.133671-.4287-.803363 14.449903-.099247 1.815695-9.4277-.534626-.099237-3.853303h2.102918l.203211-1.497956 1.904434-.4287.302448-.423665-7.12158-1.714818-5.415611 1.603855.902596.751503h.902612l.099237 1.286116 1.904445.105912v3.747387l-2.102919.53463.401674.852369.500925.322785v2.889986h1.304284v13.375612l-2.107646.322791.302437 3.853297 1.29956.216875-.198476 8.775868 5.718048.1059-1.205036-8.669926 8.624341-.211842-.600161 4.705689-.80336 3.318679 8.723576.10591.099238-8.558977 6.015767-.534612-.29772 5.45717-.203201 3.207719h5.117899l-.20321-8.775853.704123.110964.198485-4.176105h-.803361l-.297723-1.714818-.500924-4.922556.198485-5.668996h1.101071v-3.424601l-1.403517.10591.203199-4.039919 1.630357-.161388.075614-1.311334.926236-.136182.949857-.721236-5.713334-1.175154-5.666072 1.255848.552898.907857.600162-.050441.699398-.025218.1276 1.654296 1.578368-.075647.028352 3.58095-6.795506-.15635.226837-3.828095.222099-3.480075v-4.574549l.20321-4.81663 13.609913-.696015 16.194854-.933059.151215 3.076591-.576523 7.383817-.250464 6.874418-5.963796-.105915-.028348-4.816629 2.206879-.080689.099251-1.361781.902596-.136178-.047259-.267302.90261-.050438.500912-.670795-6.743521-1.578651-6.719895 1.44247.477288.832193.751385-.055485v.378277h.926233v1.523161l1.980057.025218-.023638 4.226529h-2.003678l-.028352.963331.704124.080691-.075611 3.666695 1.479132.080707-.174851 14.530598-1.956419.398445.023625.696015h.680499v3.72217h1.124707l-.297722 5.083953-.378048 4.43836 7.121569.1866-.226828-3.8533-.524546-3.207722-.103963-2.784073 6.044121-.105914-.174851 4.307231-.028351 4.549318 3.411932.26731 4.635874-.1866 1.455507-.42872-.80337-2.43605-.198478-3.828092-.378047-2.728585 5.765306-.211826-.250459 3.343904-.023626 5.245329 2.30612.21183 2.282498-.05044 1.101077-.348-.652135-4.978017-.222116-3.747394.978216-.105915.023634-3.343902.274093-.055477-.047276-.721233h-1.129421l-.226827-2.461285-.099245-10.677284.850626-.025219v-3.505308l.354416.055489v-.696017l-1.25702-.110961.028353-4.06514 2.102917-.186605-.122861-1.366825.926237-.080694-.051995-.267314 1.228675-.61532-6.24261-1.255849-6.341832 1.286115.401673.746456.978213-.080695.051985.32279h.826987l.04726 1.603855 2.05567-.02522.174848 3.934007-7.268076-.055472-.850624-5.911092-.680487-3.132083-.548183-5.618557.326073-3.288431 14.488882-1.099496.047258-4.897336.727755-.186608-.04724-.746454-.552908-.322787c-.000114 0-7.922562 1.174894-10.429546 1.442468-.706297.075369-.652807.070418-1.228673.13113l-.075612-.907852-2.996075-1.568554.037807-1.825778 1.030198-.030268.075602-2.51171s6.139781-.402974 8.421138-.938108c2.281355-.535141 5.51485-1.069244 5.51485-1.069244l1.531113-4.145836 3.033892-.882633.250451-.696015 6.866392-1.901424.77974-.640542-2.60858-5.699265.25048-1.286117 1.32792-.696013.95457-2.915207zm-32.989856 21.727805-.037807 2.072926 1.554746.065557-.099237 1.96701-3.048061 1.997266-.189019.57497 1.228671.010086-.009455.484186-9.31428.453923.061431-1.37691.425312-.685933.028349-.438784.009456-.948193.264629-.630458.09924-.509392v-.363141l.401684-1.603871zm-19.479186 1.765256-.226835 1.392043.727746.857404-.04725 1.497955.675763 1.044022-.17485 1.230631.500923.721234-9.503313.373227-.023625-.317741 1.101086-.13618.051974-.403482-2.405367-1.3063-.127589-2.088047 1.15306-.055474.09925-2.249446zm14.063574 32.107534 5.765308.373224-.198471 7.762091.751371 6.365024-6.115005-.211839zm-38.608682.322786 9.229227.479138-.803361 5.35126v4.498891l.652137 2.511709-9.026014.428704zm59.066078.050438v13.274746l-5.864545.428706-.203201-7.010602-.652148-6.531449zm-44.421242.29757 6.819132.025219.070886 12.306371-6.365468.110961-.326075-3.989484-.023625-3.959223z" fill="url(#a)" fill-rule="evenodd" stroke="#323232"/></svg>